<?xml version="1.0" standalone="no"?><!DOCTYPE svg PUBLIC "-//W3C//DTD SVG 1.1//EN" "http://www.w3.org/Graphics/SVG/1.1/DTD/svg11.dtd"><svg t="1748153043362" class="icon" viewBox="0 0 1024 1024" version="1.1" xmlns="http://www.w3.org/2000/svg" p-id="12233" width="256" height="256" xmlns:xlink="http://www.w3.org/1999/xlink"><path d="M132.523773 325.71167m88.522756 0l578.001526 0q88.522756 0 88.522756 88.522757l0 213.496059q0 88.522756-88.522756 88.522756l-578.001526 0q-88.522756 0-88.522756-88.522756l0-213.496059q0-88.522756 88.522756-88.522757Z" fill="#00CC86" p-id="12234"></path><path d="M311.912535 1024H91.386728A91.647089 91.647089 0 0 1 0 932.352911v-220.265446a26.036105 26.036105 0 0 1 52.07221 0v220.265446a39.574879 39.574879 0 0 0 39.314518 39.574879h220.525807a26.036105 26.036105 0 0 1 0 52.07221zM932.352911 1024h-220.265446a26.036105 26.036105 0 0 1 0-52.07221h220.265446a39.574879 39.574879 0 0 0 39.574879-39.574879v-220.265446a26.036105 26.036105 0 0 1 52.07221 0v220.265446a91.90745 91.90745 0 0 1-91.647089 91.647089zM26.036105 337.94864a26.036105 26.036105 0 0 1-26.036105-26.036105V91.386728A91.386728 91.386728 0 0 1 91.386728 0h220.525807a26.036105 26.036105 0 0 1 0 52.07221H91.386728A38.793796 38.793796 0 0 0 52.07221 91.386728v220.525807a26.036105 26.036105 0 0 1-26.036105 26.036105zM997.963895 337.94864a26.036105 26.036105 0 0 1-26.036105-26.036105V91.386728A39.314518 39.314518 0 0 0 932.352911 52.07221h-220.265446a26.036105 26.036105 0 0 1 0-52.07221h220.265446a91.647089 91.647089 0 0 1 91.647089 91.386728v220.525807a26.036105 26.036105 0 0 1-26.036105 26.036105zM888.351894 537.905924h-755.047038a26.036105 26.036105 0 0 1 0-52.072209h755.047038a26.036105 26.036105 0 1 1 0 52.072209z" fill="#492F5D" p-id="12235"></path></svg>